<?xml version="1.0" encoding="UTF-8"?>
<!-- Generated by Pixelmator Pro 3.7 -->
<svg width="3600" height="1408" viewBox="0 0 3600 1408" xmlns="http://www.w3.org/2000/svg">
    <g id="text-1">
        <g id="Group">
            <path id="Path" fill="#0f172a" stroke="none" d="M 290.848785 955.969849 L 176 955.969849 L 325.121124 513.953979 L 467.31485 513.953979 L 616.435974 955.969849 L 501.587189 955.969849 L 397.797913 625.399841 L 394.394989 625.399841 L 290.848785 955.969849 M 275.535614 782.05603 L 515.441956 782.05603 L 515.441956 863.11853 L 275.535614 863.11853 L 275.535614 782.05603 Z M 953.447266 725.664612 L 856.585388 728.338379 C 855.613159 721.370422 852.898926 715.212769 848.442688 709.865295 C 843.98645 704.436829 838.193359 700.183228 831.063416 697.10437 C 823.933472 694.025513 815.669189 692.486084 806.270691 692.486084 C 794.117371 692.486084 783.746521 694.916748 775.158203 699.778076 C 766.569824 704.720459 762.356689 711.364197 762.518738 719.709473 C 762.356689 726.110229 764.98999 731.700745 770.418396 736.481018 C 775.765808 741.261353 785.447998 745.069397 799.464783 747.905151 L 863.269653 760.058472 C 896.407715 766.378174 921.038391 776.870544 937.161804 791.535583 C 953.366211 806.200562 961.549438 825.605347 961.711548 849.749878 C 961.549438 872.51709 954.824585 892.286499 941.537048 909.058105 C 928.24939 925.910645 910.059937 938.995728 886.968628 948.313232 C 863.958374 957.549805 837.666687 962.16803 808.093628 962.16803 C 760.69574 962.16803 723.385071 952.445435 696.161682 933.000122 C 668.938232 913.473755 653.381958 887.30365 649.49292 854.489746 L 753.64679 851.937561 C 755.996399 864.009827 761.992065 873.205872 771.633667 879.525574 C 781.27533 885.845337 793.550232 889.005127 808.458252 889.005127 C 821.988953 889.005127 833.007874 886.493469 841.515198 881.470093 C 850.022522 876.446655 854.316711 869.762329 854.397766 861.417114 C 854.316711 853.963074 851.035339 847.967468 844.553589 843.430237 C 838.071838 838.893005 827.903564 835.328003 814.048767 832.735229 L 756.320557 821.675781 C 723.020508 815.680176 698.268188 804.499084 682.063782 788.132629 C 665.778381 771.847168 657.716736 751.024475 657.878784 725.664612 C 657.716736 703.545593 663.59082 684.586426 675.501038 668.78717 C 687.49231 653.068848 704.466431 641.037048 726.423401 632.691772 C 748.461426 624.346497 774.428955 620.173889 804.326111 620.173889 C 849.212341 620.173889 884.619019 629.572449 910.546021 648.369568 C 936.473083 667.085632 950.773499 692.850647 953.447266 725.664612 Z M 1200.524048 624.427551 L 1200.524048 702.20874 L 991.487061 702.20874 L 991.487061 624.427551 L 1200.524048 624.427551 M 1035.239014 545.066467 L 1140.851196 545.066467 L 1140.851196 851.694458 C 1140.851196 858.176208 1141.864014 863.402161 1143.889648 867.372192 C 1145.996216 871.342285 1149.075073 874.137512 1153.126099 875.757996 C 1157.096191 877.459412 1161.917114 878.310181 1167.588623 878.310181 C 1171.558594 878.310181 1175.812378 877.90509 1180.349487 877.094849 C 1184.886841 876.284607 1188.3302 875.595947 1190.67981 875.028809 L 1206.600708 951.230042 C 1201.577393 952.607422 1194.487915 954.389954 1185.332397 956.577515 C 1176.177002 958.765076 1165.279419 960.142456 1152.640015 960.709595 C 1127.928223 961.843994 1106.741089 958.927185 1089.078247 951.959229 C 1071.496338 944.991333 1058.046631 934.093872 1048.729126 919.266846 C 1039.492676 904.439819 1034.995972 885.804749 1035.239014 863.361633 L 1035.239014 545.066467 Z M 1409.439453 962.16803 C 1374.762085 962.16803 1344.864868 955.321655 1319.748047 941.628906 C 1294.712158 927.855225 1275.469482 908.207336 1262.019775 882.685364 C 1248.570068 857.163391 1241.845215 826.78009 1241.845215 791.535583 C 1241.845215 757.263245 1248.570068 727.285095 1262.019775 701.601074 C 1275.550415 675.917053 1294.631226 655.945129 1319.261963 641.685303 C 1343.892578 627.34436 1372.898438 620.173889 1406.279663 620.173889 C 1429.856934 620.173889 1451.408813 623.860352 1470.935303 631.233398 C 1490.54248 638.525391 1507.435669 649.382324 1521.614502 663.80426 C 1535.87439 678.145142 1546.974487 695.848511 1554.914551 716.914246 C 1562.854736 737.97998 1566.824829 762.124573 1566.824829 789.347961 L 1566.824829 815.720642 L 1278.6698 815.720642 L 1278.6698 754.346436 L 1468.626099 754.346436 C 1468.463989 743.165344 1465.790283 733.199646 1460.604736 724.44928 C 1455.419434 715.617859 1448.330078 708.731018 1439.336548 703.788696 C 1430.343018 698.846375 1420.012817 696.375183 1408.345703 696.375183 C 1396.597412 696.375183 1386.024048 699.008362 1376.62561 704.27478 C 1367.307983 709.460205 1359.894409 716.549683 1354.384888 725.543091 C 1348.956421 734.53656 1346.0802 744.7453 1345.756104 756.169434 L 1345.756104 818.51593 C 1345.756104 832.046631 1348.42981 843.875854 1353.777344 854.00354 C 1359.124756 864.131287 1366.65979 871.990479 1376.382446 877.581055 C 1386.186157 883.171509 1397.853271 885.966736 1411.383911 885.966736 C 1420.782471 885.966736 1429.289795 884.710876 1436.905884 882.19928 C 1444.521973 879.606506 1451.044189 875.757996 1456.472656 870.653564 C 1461.982178 865.630188 1466.073853 859.472534 1468.747559 852.180603 L 1565.730957 854.97583 C 1561.679932 876.689758 1552.848389 895.567932 1539.236816 911.610229 C 1525.625122 927.652588 1507.840698 940.089539 1485.883667 948.920959 C 1463.845703 957.752319 1438.364258 962.16803 1409.439453 962.16803 Z M 1620.906982 955.969849 L 1620.906982 624.427551 L 1723.481079 624.427551 L 1723.481079 684.95105 L 1726.883911 684.95105 C 1732.960571 663.075073 1742.804688 646.749084 1756.41626 635.973206 C 1770.109009 625.278259 1786.029907 619.930847 1804.178955 619.930847 C 1809.040405 619.930847 1814.063721 620.254944 1819.249146 620.903076 C 1824.43457 621.55127 1829.255249 622.52356 1833.711426 623.819885 L 1833.711426 715.577332 C 1828.68811 713.794922 1822.084839 712.417542 1813.901611 711.445251 C 1805.799316 710.473022 1798.588379 709.986877 1792.268677 709.986877 C 1779.79126 709.986877 1768.529297 712.741638 1758.482666 718.251099 C 1748.516724 723.76062 1740.697998 731.457703 1735.026611 741.342346 C 1729.274048 751.227112 1726.397705 762.772705 1726.397705 775.979309 L 1726.397705 955.969849 L 1620.906982 955.969849 Z M 2040.196289 955.969849 L 1876.855591 955.969849 L 1876.855591 513.953979 L 2039.953125 513.953979 C 2085.001221 513.953979 2123.811035 522.7854 2156.381836 540.448181 C 2188.952881 558.029968 2214.110107 583.349426 2231.854004 616.406372 C 2249.516602 649.382324 2258.3479 688.840088 2258.3479 734.779602 C 2258.3479 780.80011 2249.557373 820.338867 2231.975586 853.395935 C 2214.312744 886.533936 2189.155518 911.893799 2156.503662 929.475586 C 2123.851318 947.138428 2085.082275 955.969849 2040.196289 955.969849 M 1983.68335 864.820007 L 2036.064087 864.820007 C 2060.856689 864.820007 2081.841553 860.6474 2099.018066 852.302185 C 2116.194824 843.875854 2129.198975 830.10199 2138.030273 810.980835 C 2146.942871 791.940613 2151.398926 766.540283 2151.398926 734.779602 C 2151.398926 702.937927 2146.9021 677.578003 2137.908691 658.69989 C 2128.996338 639.740723 2115.87085 626.088501 2098.531982 617.743225 C 2081.193359 609.316895 2059.884521 605.10376 2034.605713 605.10376 L 1983.68335 605.10376 L 1983.68335 864.820007 Z M 2320.573242 955.969849 L 2320.573242 624.427551 L 2423.025635 624.427551 L 2423.025635 684.95105 L 2426.428223 684.95105 C 2432.504883 663.075073 2442.389648 646.749084 2456.08252 635.973206 C 2469.694092 625.278259 2485.574463 619.930847 2503.723389 619.930847 C 2508.584961 619.930847 2513.608398 620.254944 2518.793701 620.903076 C 2523.979004 621.55127 2528.799805 622.52356 2533.256104 623.819885 L 2533.256104 715.577332 C 2528.232666 713.794922 2521.669922 712.417542 2513.567627 711.445251 C 2505.465576 710.473022 2498.213867 709.986877 2491.813477 709.986877 C 2479.335693 709.986877 2468.114258 712.741638 2458.148682 718.251099 C 2448.101563 723.76062 2440.242432 731.457703 2434.571045 741.342346 C 2428.899414 751.227112 2426.063721 762.772705 2426.063721 775.979309 L 2426.063721 955.969849 L 2320.573242 955.969849 Z M 2576.400391 955.969849 L 2576.400391 624.427551 L 2682.012695 624.427551 L 2682.012695 955.969849 L 2576.400391 955.969849 Z M 3070.432373 624.427551 L 2956.677246 955.969849 L 2835.873535 955.969849 L 2722.361572 624.427551 L 2833.442627 624.427551 L 2894.573975 852.788269 L 2897.977051 852.788269 L 2959.229492 624.427551 L 3070.432373 624.427551 Z M 3265.736084 962.16803 C 3231.058594 962.16803 3201.161377 955.321655 3176.044678 941.628906 C 3150.927734 927.855225 3131.644531 908.207336 3118.19458 882.685364 C 3104.745117 857.163391 3098.020264 826.78009 3098.020264 791.535583 C 3098.020264 757.263245 3104.785645 727.285095 3118.316406 701.601074 C 3131.846924 675.917053 3150.887207 655.945129 3175.437012 641.685303 C 3200.067627 627.34436 3229.073486 620.173889 3262.45459 620.173889 C 3286.031982 620.173889 3307.624512 623.860352 3327.231934 631.233398 C 3346.758301 638.525391 3363.651123 649.382324 3377.910889 663.80426 C 3392.170898 678.145142 3403.230469 695.848511 3411.0896 716.914246 C 3419.029785 737.97998 3423 762.124573 3423 789.347961 L 3423 815.720642 L 3134.966553 815.720642 L 3134.966553 754.346436 L 3324.801025 754.346436 C 3324.63916 743.165344 3321.965332 733.199646 3316.779785 724.44928 C 3311.594482 715.617859 3304.545654 708.731018 3295.633057 703.788696 C 3286.639893 698.846375 3276.309326 696.375183 3264.642334 696.375183 C 3252.812988 696.375183 3242.239502 699.008362 3232.922119 704.27478 C 3223.523682 709.460205 3216.110107 716.549683 3210.681396 725.543091 C 3205.172119 734.53656 3202.295654 744.7453 3202.052734 756.169434 L 3202.052734 818.51593 C 3202.052734 832.046631 3204.685791 843.875854 3209.952148 854.00354 C 3215.299805 864.131287 3222.875488 871.990479 3232.678955 877.581055 C 3242.482666 883.171509 3254.149902 885.966736 3267.68042 885.966736 C 3276.998047 885.966736 3285.465088 884.710876 3293.081299 882.19928 C 3300.697266 879.606506 3307.26001 875.757996 3312.769287 870.653564 C 3318.197754 865.630188 3322.289307 859.472534 3325.043945 852.180603 L 3421.906006 854.97583 C 3417.854736 876.689758 3409.063965 895.567932 3395.533447 911.610229 C 3381.921631 927.652588 3364.096924 940.089539 3342.058838 948.920959 C 3320.020996 957.752319 3294.580078 962.16803 3265.736084 962.16803 Z"/>
        </g>
        <path id="Circle" fill="#3b82f6" fill-rule="evenodd" stroke="none" d="M 2696.049316 513.768799 C 2696.049316 476.943665 2666.196777 447.091003 2629.371582 447.091003 C 2592.546387 447.091003 2562.693604 476.943665 2562.693604 513.768799 C 2562.693604 550.593933 2592.546387 580.446594 2629.371582 580.446594 C 2666.196777 580.446594 2696.049316 550.593933 2696.049316 513.768799 Z"/>
    </g>
</svg>
